<svg width="current" height="current" viewBox="0 0 40 40" fill="current" xmlns="http://www.w3.org/2000/svg">
<path d="M23.3333 15C23.3333 15.9166 22.5833 16.6666 21.6667 16.6666H19.0333C18.5667 16.6666 18.1167 16.5666 17.7 16.3833L13.8667 14.7L11.6667 21.25V35C11.6667 35.9166 10.9167 36.6666 10 36.6666H6.66667C5.75 36.6666 5 35.9166 5 35V20.55C5 20.1833 5.06667 19.8166 5.18333 19.4666L7.65 12.2666C8.26667 10.4166 10.3667 9.48329 12.1667 10.3L19.0833 13.35L21.6667 13.3333C22.5833 13.3333 23.3333 14.0833 23.3333 15ZM13.3333 1.66663C11.5 1.66663 10 3.16663 10 4.99996C10 6.83329 11.5 8.33329 13.3333 8.33329C15.1667 8.33329 16.6667 6.83329 16.6667 4.99996C16.6667 3.16663 15.1667 1.66663 13.3333 1.66663ZM16.6667 31.6666H33.3333C34.25 31.6666 35 30.9166 35 30C35 29.0833 34.25 28.3333 33.3333 28.3333H16.6667C15.75 28.3333 15 29.0833 15 30C15 30.9166 15.75 31.6666 16.6667 31.6666ZM32.5 26.6666C33.8833 26.6666 35 25.55 35 24.1666C35 22.7833 33.8833 21.6666 32.5 21.6666C31.1167 21.6666 30 22.7833 30 24.1666C30 25.55 31.1167 26.6666 32.5 26.6666ZM21.6667 20C21.6667 19.0833 20.9167 18.3333 20 18.3333H16.6667C15.75 18.3333 15 19.0833 15 20C15 20.9166 15.75 21.6666 16.6667 21.6666H18.3333V23.3333C18.3333 25.1666 19.8333 26.6666 21.6667 26.6666H25C26.8333 26.6666 28.3333 25.1666 28.3333 23.3333V20C28.3333 19.0833 27.5833 18.3333 26.6667 18.3333C25.75 18.3333 25 19.0833 25 20V21.6666H21.6667V20Z" fill="current"/>
</svg>
