<svg width="current" height="current" viewBox="0 0 40 40" fill="current" xmlns="http://www.w3.org/2000/svg">
<path d="M30.5333 30.5333C29.9333 29.9333 29 29.8666 28.35 30.4C27.8167 30.8166 27.2667 31.2 26.6833 31.55V26.6666H30.0167C31.85 26.6666 33.35 25.1666 33.35 23.3333V18.3333C33.35 16.5 31.85 15 30.0167 15H20.0167V9.99996C20.0167 8.16663 18.5167 6.66663 16.6833 6.66663H13.3333C9.65 6.66663 6.66667 9.64996 6.66667 13.3333V23.3333C6.66667 25.1666 8.16667 26.6666 10 26.6666H13.3333V31.55C12.75 31.2166 12.1833 30.8333 11.6667 30.4C11.0167 29.8666 10.0667 29.95 9.48333 30.5333C8.78333 31.2333 8.83333 32.4 9.61667 33.0333C12.45 35.3 16.0667 36.6666 20 36.6666C23.9333 36.6666 27.55 35.3 30.4 33.0333C31.1833 32.4 31.2333 31.2333 30.5333 30.5333ZM23.3333 32.9166C22.2667 33.1833 21.15 33.3333 20 33.3333C18.85 33.3333 17.7333 33.1833 16.6667 32.9166V26.6666H23.3333V32.9166Z" fill="current"/>
</svg>
