<svg width="current" height="current" viewBox="0 0 40 40" fill="current" xmlns="http://www.w3.org/2000/svg">
<path d="M34.0167 15C34.8333 15 35.1667 13.95 34.5 13.4833L21.9167 4.66665C20.7667 3.86665 19.2333 3.86665 18.1 4.66665L5.5 13.4833C4.83333 13.95 5.16667 15 5.98333 15H18.3333V35C18.3333 35.9166 19.0833 36.6666 20 36.6666C20.9167 36.6666 21.6667 35.9166 21.6667 35V15H34.0167Z" fill="current"/>
<path d="M13.3333 26.6667H8.16666L7.21666 21.6334C7.05 20.7334 6.18333 20.1334 5.26666 20.3C4.36666 20.4667 3.76666 21.3334 3.93333 22.25L5 27.9V35C5 35.9167 5.75 36.6667 6.66666 36.6667H6.68333C7.6 36.6667 8.35 35.9334 8.35 35.0167L8.36666 30H11.6667V35C11.6667 35.9167 12.4167 36.6667 13.3333 36.6667C14.25 36.6667 15 35.9167 15 35V28.3334C15 27.4167 14.25 26.6667 13.3333 26.6667Z" fill="current"/>
<path d="M34.7333 20.3C33.8333 20.1334 32.9667 20.7334 32.7833 21.6334L31.8333 26.6667H26.6667C25.75 26.6667 25 27.4167 25 28.3334V35C25 35.9167 25.75 36.6667 26.6667 36.6667C27.5833 36.6667 28.3333 35.9167 28.3333 35V30H31.6333L31.6667 35.0167C31.6667 35.9334 32.4167 36.6667 33.3333 36.6667C34.25 36.6667 35 35.9167 35 35V27.9L36.0667 22.25C36.2333 21.35 35.6333 20.4667 34.7333 20.3Z" fill="current"/>
</svg>
