<svg width="current" height="current" viewBox="0 0 40 40" fill="current" xmlns="http://www.w3.org/2000/svg">
<path d="M24.1667 19.5833C25.3173 19.5833 26.25 18.6506 26.25 17.5C26.25 16.3494 25.3173 15.4166 24.1667 15.4166C23.0161 15.4166 22.0833 16.3494 22.0833 17.5C22.0833 18.6506 23.0161 19.5833 24.1667 19.5833Z" fill="current"/>
<path d="M15.8333 19.5833C16.9839 19.5833 17.9167 18.6506 17.9167 17.5C17.9167 16.3494 16.9839 15.4166 15.8333 15.4166C14.6827 15.4166 13.75 16.3494 13.75 17.5C13.75 18.6506 14.6827 19.5833 15.8333 19.5833Z" fill="current"/>
<path d="M26.8333 23.3333H13.1667C12.85 23.3333 12.6333 23.6667 12.7833 23.95C14.1667 26.5667 16.8833 28.3333 20 28.3333C23.1167 28.3333 25.8333 26.5667 27.2167 23.95C27.35 23.6667 27.1333 23.3333 26.8333 23.3333ZM38.2333 18.9C37.8167 16.3833 35.9667 14.3333 33.55 13.6167C32.6667 11.75 31.4167 10.1167 29.9 8.76667C27.2667 6.41667 23.8 5 20 5C16.2 5 12.7333 6.41667 10.1 8.76667C8.56667 10.1167 7.31667 11.7667 6.45 13.6167C4.03334 14.3333 2.18334 16.3667 1.76667 18.9C1.7 19.25 1.66667 19.6167 1.66667 20C1.66667 20.3833 1.7 20.75 1.76667 21.1C2.18334 23.6167 4.03334 25.6667 6.45 26.3833C7.31667 28.2333 8.56667 29.8667 10.0667 31.2C12.7 33.5667 16.1833 35 20 35C23.8167 35 27.3 33.5667 29.95 31.2C31.45 29.8667 32.7 28.2167 33.5667 26.3833C35.9667 25.6667 37.8167 23.6333 38.2333 21.1C38.3 20.75 38.3333 20.3833 38.3333 20C38.3333 19.6167 38.3 19.25 38.2333 18.9ZM31.6667 23.3333C31.5 23.3333 31.35 23.3 31.1833 23.2833C30.85 24.4 30.3667 25.4333 29.75 26.3833C27.6667 29.5667 24.0833 31.6667 20 31.6667C15.9167 31.6667 12.3333 29.5667 10.25 26.3833C9.63334 25.4333 9.15 24.4 8.81667 23.2833C8.65 23.3 8.5 23.3333 8.33334 23.3333C6.5 23.3333 5 21.8333 5 20C5 18.1667 6.5 16.6667 8.33334 16.6667C8.5 16.6667 8.65 16.7 8.81667 16.7167C9.15 15.6 9.63334 14.5667 10.25 13.6167C12.3333 10.4333 15.9167 8.33333 20 8.33333C24.0833 8.33333 27.6667 10.4333 29.75 13.6167C30.3667 14.5667 30.85 15.6 31.1833 16.7167C31.35 16.7 31.5 16.6667 31.6667 16.6667C33.5 16.6667 35 18.1667 35 20C35 21.8333 33.5 23.3333 31.6667 23.3333Z" fill="current"/>
</svg>
