<svg width="current" height="current" viewBox="0 0 40 40" fill="current" xmlns="http://www.w3.org/2000/svg">
<path d="M31.5333 8.34996C31.2 7.36663 30.2667 6.66663 29.1667 6.66663H10.8333C9.73333 6.66663 8.81667 7.36663 8.46667 8.34996L5.18333 17.8C5.06667 18.15 5 18.5166 5 18.9V30.8333C5 32.2166 6.11667 33.3333 7.5 33.3333C8.88333 33.3333 10 32.2166 10 30.8333V30H30V30.8333C30 32.2 31.1167 33.3333 32.5 33.3333C33.8667 33.3333 35 32.2166 35 30.8333V18.9C35 18.5333 34.9333 18.15 34.8167 17.8L31.5333 8.34996ZM10.8333 25C9.45 25 8.33333 23.8833 8.33333 22.5C8.33333 21.1166 9.45 20 10.8333 20C12.2167 20 13.3333 21.1166 13.3333 22.5C13.3333 23.8833 12.2167 25 10.8333 25ZM29.1667 25C27.7833 25 26.6667 23.8833 26.6667 22.5C26.6667 21.1166 27.7833 20 29.1667 20C30.55 20 31.6667 21.1166 31.6667 22.5C31.6667 23.8833 30.55 25 29.1667 25ZM8.33333 16.6666L10.45 10.3C10.6833 9.63329 11.3167 9.16663 12.0333 9.16663H27.9667C28.6833 9.16663 29.3167 9.63329 29.55 10.3L31.6667 16.6666H8.33333Z" fill="current"/>
</svg>
