<svg width="current" height="current" viewBox="0 0 40 40" fill="current" xmlns="http://www.w3.org/2000/svg">
<path d="M33.3333 10H29.7C29.8833 9.48337 30 8.91671 30 8.33337C30 5.56671 27.7667 3.33337 25 3.33337C23.25 3.33337 21.7333 4.23337 20.8333 5.58337L20 6.70004L19.1667 5.56671C18.2667 4.23337 16.75 3.33337 15 3.33337C12.2333 3.33337 10 5.56671 10 8.33337C10 8.91671 10.1167 9.48337 10.3 10H6.66668C4.81668 10 3.35001 11.4834 3.35001 13.3334L3.33334 31.6667C3.33334 33.5167 4.81668 35 6.66668 35H33.3333C35.1833 35 36.6667 33.5167 36.6667 31.6667V13.3334C36.6667 11.4834 35.1833 10 33.3333 10ZM25 6.66671C25.9167 6.66671 26.6667 7.41671 26.6667 8.33337C26.6667 9.25004 25.9167 10 25 10C24.0833 10 23.3333 9.25004 23.3333 8.33337C23.3333 7.41671 24.0833 6.66671 25 6.66671ZM15 6.66671C15.9167 6.66671 16.6667 7.41671 16.6667 8.33337C16.6667 9.25004 15.9167 10 15 10C14.0833 10 13.3333 9.25004 13.3333 8.33337C13.3333 7.41671 14.0833 6.66671 15 6.66671ZM33.3333 31.6667H6.66668V28.3334H33.3333V31.6667ZM33.3333 23.3334H6.66668V13.3334H15.1333L11.6667 18.05L14.3667 20L20 12.3334L25.6333 20L28.3333 18.05L24.8667 13.3334H33.3333V23.3334Z" fill="current"/>
</svg>
