<svg width="current" height="current" viewBox="0 0 40 40" fill="current" xmlns="http://www.w3.org/2000/svg">
<g clip-path="url(#clip0_100_1645)">
<path d="M9.16667 35V24.1667H8.33334C7.41667 24.1667 6.66667 23.4167 6.66667 22.5V15C6.66667 13.1667 8.16667 11.6667 10 11.6667H15C16.8333 11.6667 18.3333 13.1667 18.3333 15V22.5C18.3333 23.4167 17.5833 24.1667 16.6667 24.1667H15.8333V35C15.8333 35.9167 15.0833 36.6667 14.1667 36.6667H10.8333C9.91667 36.6667 9.16667 35.9167 9.16667 35ZM30 35V26.6667H32.6833C33.8167 26.6667 34.6167 25.55 34.2667 24.4667L30.7667 13.95C30.3 12.5834 29.0333 11.6667 27.6 11.6667H27.4C25.9667 11.6667 24.6833 12.5834 24.2333 13.95L20.7333 24.4667C20.3667 25.55 21.1667 26.6667 22.3167 26.6667H25V35C25 35.9167 25.75 36.6667 26.6667 36.6667H28.3333C29.25 36.6667 30 35.9167 30 35ZM12.5 10C14.35 10 15.8333 8.51671 15.8333 6.66671C15.8333 4.81671 14.35 3.33337 12.5 3.33337C10.65 3.33337 9.16667 4.81671 9.16667 6.66671C9.16667 8.51671 10.65 10 12.5 10ZM27.5 10C29.35 10 30.8333 8.51671 30.8333 6.66671C30.8333 4.81671 29.35 3.33337 27.5 3.33337C25.65 3.33337 24.1667 4.81671 24.1667 6.66671C24.1667 8.51671 25.65 10 27.5 10Z" fill="current"/>
</g>
<defs>
<clipPath id="clip0_100_1645">
<rect width="40" height="40" fill="white"/>
</clipPath>
</defs>
</svg>
