<svg width="current" height="current" viewBox="0 0 40 40" fill="current" xmlns="http://www.w3.org/2000/svg">
<path d="M3.43333 16.7667C4.28333 17.6167 5.63333 17.7 6.55 16.9334C14.3333 10.5334 25.6333 10.5334 33.4333 16.9167C34.3667 17.6834 35.7333 17.6167 36.5833 16.7667C37.5667 15.7834 37.5 14.15 36.4167 13.2667C26.9 5.48337 13.1333 5.48337 3.6 13.2667C2.51667 14.1334 2.43333 15.7667 3.43333 16.7667ZM16.3667 29.7L18.8167 32.15C19.4667 32.8 20.5167 32.8 21.1667 32.15L23.6167 29.7C24.4 28.9167 24.2333 27.5667 23.2333 27.05C21.2 26 18.7667 26 16.7167 27.05C15.7667 27.5667 15.5833 28.9167 16.3667 29.7ZM10.15 23.4834C10.9667 24.3 12.25 24.3834 13.2 23.7C17.2667 20.8167 22.7333 20.8167 26.8 23.7C27.75 24.3667 29.0333 24.3 29.85 23.4834L29.8667 23.4667C30.8667 22.4667 30.8 20.7667 29.65 19.95C23.9167 15.8 16.1 15.8 10.35 19.95C9.2 20.7834 9.13333 22.4667 10.15 23.4834Z" fill="current"/>
</svg>
